<svg xmlns="http://www.w3.org/2000/svg" xmlns:xlink="http://www.w3.org/1999/xlink" viewBox="0,0,256,256" width="50px" height="50px" fill-rule="nonzero"><g fill="#ffae2b" fill-rule="nonzero" stroke="none" stroke-width="1" stroke-linecap="butt" stroke-linejoin="miter" stroke-miterlimit="10" stroke-dasharray="" stroke-dashoffset="0" font-family="none" font-weight="none" font-size="none" text-anchor="none" style="mix-blend-mode: normal"><g transform="scale(5.12,5.12)"><path d="M25,6c-3.34,0 -5.84,0.63 -7.5,1.75c-0.05841,0.03952 -0.10771,0.08428 -0.16406,0.125c-1.00723,-0.63527 -2.20427,-0.875 -3.33594,-0.875h-11c-0.40288,0.00014 -0.76633,0.242 -0.92204,0.61357c-0.15571,0.37157 -0.07326,0.80029 0.20915,1.0876c0,0 1.81692,1.84497 4.52734,3.67773c2.45226,1.65819 5.66574,3.34681 9.09766,3.65625c0.00683,0.01098 0.01068,0.02423 0.01758,0.03516c0.2,0.1 0.41086,0.18906 0.63086,0.28906c1.57,0.73 3.51945,1.64063 8.43945,1.64063c4.92,0 6.86945,-0.91062 8.43945,-1.64062c0.22,-0.1 0.43086,-0.18906 0.63086,-0.28906c0.0069,-0.01092 0.01075,-0.02417 0.01758,-0.03516c3.43191,-0.30944 6.6454,-1.99806 9.09766,-3.65625c2.71042,-1.83276 4.52734,-3.67773 4.52734,-3.67773c0.28242,-0.28732 0.36486,-0.71604 0.20915,-1.08761c-0.15571,-0.37157 -0.51917,-0.61343 -0.92204,-0.61357h-11c-1.13219,0 -2.33037,0.23906 -3.33789,0.875c-1.66427,-1.19968 -4.21338,-1.875 -7.66211,-1.875zM5.8125,9h8.1875c0.67202,0 1.33028,0.1394 1.87891,0.37891c-0.582,0.89391 -0.87891,1.93896 -0.87891,3.12109c0,0.50403 0.05453,0.96464 0.13281,1.40625c-2.57637,-0.47288 -5.15348,-1.80356 -7.19727,-3.18555c-1.27692,-0.86344 -1.38418,-1.07827 -2.12305,-1.7207zM36,9h8.1875c-0.73887,0.64244 -0.84613,0.85726 -2.12305,1.7207c-2.04378,1.38199 -4.62089,2.71267 -7.19727,3.18555c0.07829,-0.44161 0.13281,-0.90222 0.13281,-1.40625c0,-1.17918 -0.29892,-2.22508 -0.88086,-3.11914c0.54905,-0.24016 1.2079,-0.38086 1.88086,-0.38086zM20.97266,11c1.52522,-0.03905 3.02734,0.83734 3.02734,2.83984c-2.373,2.373 -5.93359,-0.0005 -5.93359,-1.1875c0.51931,-1.03819 1.71997,-1.62197 2.90625,-1.65234zM29.02734,11.00195c1.18628,0.03046 2.38694,0.61416 2.90625,1.65234c0,1.186 -3.56059,3.55855 -5.93359,1.18555c0,-2.00194 1.50213,-2.87705 3.02734,-2.83789zM24,15h2c0,0.552 -0.448,1 -1,1c-0.552,0 -1,-0.448 -1,-1zM14.53906,17.67969c-0.07,0.08 -0.53906,0.71031 -0.53906,4.32031c0,1.03 4.00023,2.05477 8.74023,2.38477c0.83,0.07 1.50984,-0.17383 2.08984,-0.67383c1.03,-0.89 1.57031,-2.54023 1.82031,-3.74023c-0.51,0.02 -1.06039,0.0293 -1.65039,0.0293c-5.36,0 -7.5393,-1.01008 -9.2793,-1.83008c-0.37,-0.17 -0.72008,-0.3307 -1.08008,-0.4707c-0.07,-0.02 -0.10156,-0.01953 -0.10156,-0.01953zM35.41992,17.67969c-0.01,0.01 -0.03055,0.00953 -0.06055,0.01953c-0.36,0.14 -0.71008,0.30047 -1.08008,0.48047c-1.27,0.59 -2.78937,1.29109 -5.60937,1.62109c-0.19,1.19 -0.6593,3.15914 -1.7793,4.61914c4.96,-0.28 9.10938,-1.33992 9.10938,-2.41992c0,-3.38 -0.41008,-4.15031 -0.58008,-4.32031zM12.08008,22.58008c-0.96844,1.51196 -1.80803,3.21424 -2.41406,4.55469l-0.28125,-0.10547c-0.574,-0.215 -1.21469,0.07639 -1.42969,0.65039l-0.85742,2.29297c-0.215,0.574 0.07444,1.21273 0.64844,1.42773l0.33594,0.125c-0.06898,0.17313 -0.14202,0.33922 -0.19922,0.52734c-0.18603,0.61182 -0.31031,1.31986 -0.13281,2.07031c0.17739,0.75001 0.74155,1.49574 1.59375,1.89648c0.82394,0.38725 1.69311,0.41103 2.38867,0.16602c0.50681,-0.17853 0.91447,-0.46984 1.24805,-0.78906l-1.73047,7.37305c-0.15,1.13 0.52914,2.20125 1.61914,2.53125c1.73,0.53 5.20078,1.23906 8.80078,1.53906v-20.50977c-1.99371,-0.16779 -4.33309,-0.49556 -6.21094,-1.12891c-1.72271,-0.58062 -3.0599,-1.41686 -3.37891,-2.62109zM37.91992,22.58008c-0.33157,1.25169 -1.76223,2.10718 -3.58398,2.68945c-0.35561,0.11198 -0.7178,0.2195 -1.09766,0.3125c-0.02318,0.00569 -0.04511,0.01196 -0.06836,0.01758v0.00195c-1.57928,0.38078 -3.3154,0.60717 -4.83984,0.72852v20.50977c3.6,-0.3 7.07078,-1.00906 8.80078,-1.53906c1.09,-0.33 1.76914,-1.40125 1.61914,-2.53125l-1.73242,-7.375c0.33393,0.31996 0.7422,0.61214 1.25,0.79102c0.695,0.24482 1.56337,0.22033 2.38672,-0.16602c0.85302,-0.40057 1.41821,-1.14603 1.5957,-1.89648c0.1775,-0.75045 0.05322,-1.4585 -0.13281,-2.07031c-0.0572,-0.18812 -0.13024,-0.35422 -0.19922,-0.52734l0.33594,-0.125c0.574,-0.215 0.86344,-0.85374 0.64844,-1.42773l-0.85742,-2.29297c-0.215,-0.574 -0.85569,-0.86539 -1.42969,-0.65039l-0.28125,0.10547c-0.60603,-1.34044 -1.44562,-3.04273 -2.41406,-4.55469zM23.66992,26.46094v20.50977c0.45,0.02 0.89008,0.0293 1.33008,0.0293c0.44,0 0.88008,-0.0093 1.33008,-0.0293v-20.50977c-0.51,0.02 -0.96055,0.02906 -1.31055,0.03906c-0.36,-0.01 -0.81961,-0.01906 -1.34961,-0.03906zM9.96094,32.23047l1.91211,0.71484l0.28516,0.17969c-0.12774,0.24674 -0.13188,0.34875 -0.35547,0.61133c-0.23577,0.27688 -0.50067,0.47949 -0.73633,0.5625c-0.23566,0.08301 -0.45354,0.1064 -0.87109,-0.08984c-0.38847,-0.18243 -0.44472,-0.31314 -0.5,-0.54687c-0.05528,-0.23374 -0.02473,-0.61841 0.09961,-1.02734c0.05725,-0.18827 0.10902,-0.30161 0.16602,-0.4043zM40.03906,32.23047c0.057,0.10269 0.10877,0.21602 0.16602,0.4043c0.12434,0.40893 0.15489,0.7936 0.09961,1.02734c-0.05528,0.23374 -0.11153,0.36445 -0.5,0.54688c-0.41756,0.19625 -0.63544,0.17286 -0.87109,0.08984c-0.23566,-0.08301 -0.50056,-0.28562 -0.73633,-0.5625c-0.22359,-0.26257 -0.22773,-0.36459 -0.35547,-0.61133l0.28711,-0.17969z"></path></g></g></svg>